<svg width="290" height="98" viewBox="0 0 290 98" fill="none" xmlns="http://www.w3.org/2000/svg">
<path d="M245.826 89V78.0909H248.462V86.8587H253.001V89H245.826ZM256.872 89H254.038L257.719 78.0909H261.229L264.91 89H262.076L259.514 80.8395H259.429L256.872 89ZM256.494 84.7067H262.417V86.7095H256.494V84.7067ZM266.084 89V78.0909H270.633C271.45 78.0909 272.134 78.2063 272.684 78.4371C273.238 78.668 273.654 78.9911 273.931 79.4066C274.211 79.8221 274.351 80.3033 274.351 80.8501C274.351 81.2656 274.264 81.6367 274.09 81.9634C273.916 82.2866 273.677 82.5547 273.371 82.7678C273.066 82.9808 272.713 83.13 272.311 83.2152V83.3217C272.752 83.343 273.158 83.462 273.531 83.6786C273.908 83.8952 274.209 84.1971 274.437 84.5842C274.664 84.9677 274.778 85.4222 274.778 85.9478C274.778 86.5337 274.628 87.0575 274.33 87.5192C274.032 87.9773 273.6 88.3395 273.036 88.6058C272.471 88.8686 271.786 89 270.98 89H266.084ZM268.721 86.8746H270.351C270.923 86.8746 271.344 86.7663 271.614 86.5497C271.887 86.3331 272.024 86.0312 272.024 85.6442C272.024 85.3636 271.958 85.1222 271.827 84.9197C271.695 84.7138 271.509 84.5558 271.267 84.4457C271.026 84.332 270.736 84.2752 270.399 84.2752H268.721V86.8746ZM268.721 82.576H270.181C270.468 82.576 270.724 82.5281 270.948 82.4322C271.171 82.3363 271.345 82.1978 271.47 82.0167C271.598 81.8356 271.661 81.6172 271.661 81.3615C271.661 80.9957 271.532 80.7081 271.273 80.4986C271.013 80.2891 270.664 80.1843 270.223 80.1843H268.721V82.576ZM281.942 81.3615C281.907 80.9709 281.748 80.6673 281.468 80.4506C281.191 80.2305 280.795 80.1204 280.28 80.1204C279.939 80.1204 279.655 80.1648 279.428 80.2536C279.201 80.3423 279.03 80.4648 278.916 80.6211C278.803 80.7738 278.744 80.9496 278.741 81.1484C278.734 81.3118 278.766 81.4556 278.837 81.5799C278.911 81.7042 279.018 81.8143 279.156 81.9102C279.298 82.0025 279.469 82.0842 279.668 82.1552C279.866 82.2262 280.09 82.2884 280.339 82.3416L281.276 82.5547C281.816 82.6719 282.292 82.8281 282.704 83.0234C283.119 83.2188 283.467 83.4513 283.748 83.7212C284.032 83.9911 284.247 84.3018 284.392 84.6534C284.538 85.005 284.612 85.3991 284.616 85.8359C284.612 86.5249 284.438 87.1161 284.094 87.6097C283.75 88.1033 283.254 88.4815 282.608 88.7443C281.965 89.0071 281.189 89.1385 280.28 89.1385C279.367 89.1385 278.572 89.0018 277.894 88.7283C277.215 88.4549 276.688 88.0394 276.312 87.4819C275.935 86.9244 275.742 86.2195 275.731 85.3672H278.256C278.277 85.7188 278.371 86.0117 278.538 86.2461C278.705 86.4805 278.934 86.658 279.225 86.7788C279.52 86.8995 279.861 86.9599 280.248 86.9599C280.603 86.9599 280.905 86.9119 281.154 86.8161C281.406 86.7202 281.599 86.587 281.734 86.4165C281.869 86.2461 281.938 86.0508 281.942 85.8306C281.938 85.6246 281.875 85.4489 281.75 85.3033C281.626 85.1541 281.434 85.0263 281.175 84.9197C280.919 84.8097 280.593 84.7085 280.195 84.6161L279.055 84.3498C278.11 84.1332 277.366 83.7834 276.823 83.3004C276.28 82.8139 276.01 82.157 276.013 81.3295C276.01 80.6548 276.191 80.0636 276.557 79.5558C276.922 79.0479 277.429 78.652 278.075 78.3679C278.721 78.0838 279.458 77.9418 280.285 77.9418C281.131 77.9418 281.864 78.0856 282.485 78.3732C283.11 78.6573 283.595 79.0568 283.94 79.5717C284.284 80.0866 284.46 80.6832 284.467 81.3615H281.942ZM287.413 89.1545C287.029 89.1545 286.701 89.0195 286.427 88.7496C286.157 88.4798 286.024 88.1531 286.028 87.7695C286.024 87.3931 286.157 87.0717 286.427 86.8054C286.701 86.5355 287.029 86.4006 287.413 86.4006C287.775 86.4006 288.094 86.5355 288.371 86.8054C288.652 87.0717 288.794 87.3931 288.797 87.7695C288.794 88.0252 288.726 88.2578 288.595 88.4673C288.467 88.6768 288.299 88.8437 288.089 88.968C287.883 89.0923 287.658 89.1545 287.413 89.1545Z" fill="#B8F5DD"/>
<path d="M192.584 13.263C193.734 10.1031 196.738 8 200.101 8H234.756C238.467 8 241.476 11.0086 241.476 14.72V14.72C241.476 18.4314 238.467 21.44 234.756 21.44H210.725C207.302 21.44 204.257 23.6186 203.153 26.8593L202.106 29.9313C200.337 35.1212 204.195 40.512 209.678 40.512H234.756C238.467 40.512 241.476 43.5206 241.476 47.232V47.232C241.476 50.9434 238.467 53.952 234.756 53.952H200.071C196.723 53.952 193.729 56.0369 192.568 59.1771L190.485 64.8091C188.553 70.0335 192.418 75.584 197.988 75.584H234.756C238.467 75.584 241.476 78.5926 241.476 82.304V82.304C241.476 86.0154 238.467 89.024 234.756 89.024H176.426C170.873 89.024 167.009 83.505 168.909 78.287L192.584 13.263Z" fill="#B8F5DD"/>
<path d="M127.943 8C131.353 8 134.4 10.1617 135.515 13.3843L144.78 40.1636C147.264 47.3427 157.417 47.3427 159.9 40.1636L169.165 13.3843C170.28 10.1617 173.364 8 176.774 8V8C182.33 8 186.292 13.5236 184.388 18.7425L160.659 83.7665C159.507 86.9236 156.504 89.024 153.143 89.024H151.545C148.18 89.024 145.175 86.9185 144.026 83.756L120.399 18.732C118.504 13.5149 122.392 8 127.943 8V8Z" fill="#B8F5DD"/>
<path d="M59 16C59 11.5817 62.5817 8 67 8H107.158C110.046 8 112.611 9.84506 113.529 12.583V12.583C114.99 16.9367 111.75 21.44 107.158 21.44H83.768C79.3497 21.44 75.768 25.0217 75.768 29.44V32.512C75.768 36.9303 79.3497 40.512 83.768 40.512H118.663C121.553 40.512 124.118 42.3587 125.036 45.0984V45.0984C126.493 49.4515 123.254 53.952 118.663 53.952H83.768C79.3497 53.952 75.768 57.5337 75.768 61.952V67.584C75.768 72.0023 79.3497 75.584 83.768 75.584H131.33C134.138 75.584 136.649 77.3295 137.628 79.9609V79.9609C139.262 84.3514 136.015 89.024 131.33 89.024H67C62.5817 89.024 59 85.4423 59 81.024V16Z" fill="#B8F5DD"/>
<path d="M38.2238 15.0718L17.0139 31.8809M16.0645 42.5014L39.142 57.2043M38.4932 66.3788L17.2833 83.1879" stroke="url(#paint0_linear_27_26)" stroke-width="2"/>
<path d="M41.398 2.84907C42.9951 2.07153 44.8057 1.84762 46.5441 2.21266C48.2824 2.5777 49.8496 3.51085 50.999 4.86513C52.1484 6.21947 52.8145 7.91793 52.892 9.69258C52.9696 11.4672 52.4545 13.2171 51.4277 14.6666C50.4008 16.116 48.9207 17.1825 47.2209 17.6979C45.521 18.2132 43.6976 18.1481 42.0388 17.5128C40.3799 16.8776 38.9795 15.7085 38.0586 14.1894C37.1377 12.6704 36.7486 10.8881 36.9526 9.12347" stroke="#DFFF85" stroke-width="2" stroke-linecap="round" stroke-linejoin="round"/>
<path d="M53.1673 60.9992C53.1785 63.1209 52.3466 65.1604 50.8542 66.6685C49.3618 68.1767 47.3311 69.0299 45.2094 69.0411C43.0877 69.0522 41.0487 68.2203 39.5405 66.7279C38.0324 65.2355 37.1787 63.2049 37.1675 61.0832C37.1564 58.9615 37.9887 56.9224 39.4811 55.4143C40.9735 53.9061 43.0037 53.0524 45.1254 53.0413C47.2471 53.0302 49.2866 53.8625 50.7948 55.3549C52.3029 56.8473 53.1562 58.8775 53.1673 60.9992Z" stroke="#D76565" stroke-width="2"/>
<path d="M7.54024 30.0272C9.13731 29.2497 10.9479 29.0258 12.6863 29.3908C14.4247 29.7558 15.9918 30.6894 17.1413 32.0436C18.2907 33.3979 18.9567 35.0963 19.0343 36.8709C19.1118 38.6456 18.5969 40.3953 17.5699 41.8448C16.543 43.2942 15.063 44.3607 13.3631 44.876C11.6632 45.3913 9.83987 45.3262 8.18104 44.691C6.52215 44.0557 5.12178 42.8867 4.20085 41.3677C3.27993 39.8487 2.89088 38.0664 3.09481 36.3018" stroke="#8788E3" stroke-width="2" stroke-linecap="round" stroke-linejoin="round"/>
<path d="M7.80801 81.0265C9.40509 80.249 11.2157 80.0251 12.9541 80.3901C14.6924 80.7551 16.2596 81.6887 17.409 83.0429C18.5585 84.3972 19.2245 86.0956 19.302 87.8702C19.3796 89.6449 18.8646 91.3946 17.8377 92.8441C16.8108 94.2935 15.3308 95.36 13.6309 95.8753C11.931 96.3906 10.1076 96.3255 8.44882 95.6903C6.78993 95.055 5.38955 93.8859 4.46863 92.367C3.54771 90.848 3.15865 89.0657 3.36259 87.3011" stroke="#D15AA2" stroke-width="2" stroke-linecap="round" stroke-linejoin="round"/>
<defs>
<linearGradient id="paint0_linear_27_26" x1="24.5994" y1="3.13065" x2="43.0994" y2="87.6306" gradientUnits="userSpaceOnUse">
<stop stop-color="white"/>
<stop offset="1" stop-color="#1FCB4F"/>
</linearGradient>
</defs>
</svg>
