<svg width="120" height="120" viewBox="0 0 120 120" fill="none" xmlns="http://www.w3.org/2000/svg">
<circle cx="60" cy="60" r="58.5" fill="#001F1F" stroke="#56CC9D" stroke-width="3"/>
<path d="M94.1895 70.2238L77.3803 49.0139M66.7598 48.0645L52.057 71.142M42.8825 70.4932L26.0733 49.2833" stroke="url(#paint0_linear_30_16)" stroke-width="2.5"/>
<path d="M106.412 73.398C107.19 74.9951 107.414 76.8057 107.049 78.544C106.684 80.2824 105.75 81.8496 104.396 82.999C103.042 84.1484 101.343 84.8145 99.5687 84.892C97.794 84.9696 96.0441 84.4545 94.5947 83.4277C93.1453 82.4008 92.0787 80.9207 91.5634 79.2208C91.048 77.521 91.1132 75.6976 91.7484 74.0388C92.3837 72.3799 93.5528 70.9795 95.0718 70.0586C96.5908 69.1377 98.3731 68.7486 100.138 68.9526" stroke="#DFFF85" stroke-width="2.5" stroke-linecap="round" stroke-linejoin="round"/>
<path d="M48.262 85.1673C46.1403 85.1785 44.1008 84.3466 42.5927 82.8542C41.0845 81.3618 40.2313 79.3311 40.2201 77.2094C40.209 75.0877 41.0409 73.0487 42.5333 71.5405C44.0257 70.0324 46.0563 69.1787 48.178 69.1676C50.2997 69.1564 52.3388 69.9887 53.8469 71.4811C55.3551 72.9735 56.2088 75.0037 56.2199 77.1254C56.2311 79.2471 55.3987 81.2866 53.9063 82.7948C52.4139 84.3029 50.3837 85.1562 48.262 85.1673Z" stroke="#D76565" stroke-width="2.5"/>
<path d="M79.234 39.5402C80.0116 41.1373 80.2355 42.9479 79.8704 44.6863C79.5054 46.4247 78.5718 47.9918 77.2176 49.1413C75.8633 50.2907 74.165 50.9567 72.3903 51.0343C70.6156 51.1118 68.8659 50.5969 67.4164 49.5699C65.9671 48.543 64.9005 47.063 64.3852 45.3631C63.8699 43.6632 63.935 41.8399 64.5703 40.181C65.2055 38.5222 66.3746 37.1218 67.8935 36.2009C69.4125 35.2799 71.1948 34.8909 72.9594 35.0948" stroke="#8788E3" stroke-width="2.5" stroke-linecap="round" stroke-linejoin="round"/>
<path d="M28.2347 39.808C29.0123 41.4051 29.2362 43.2157 28.8711 44.954C28.5061 46.6924 27.5726 48.2596 26.2183 49.409C24.864 50.5585 23.1657 51.2245 21.391 51.302C19.6163 51.3796 17.8666 50.8646 16.4171 49.8377C14.9678 48.8108 13.9012 47.3307 13.3859 45.6308C12.8706 43.931 12.9357 42.1076 13.571 40.4488C14.2062 38.7899 15.3753 37.3895 16.8943 36.4686C18.4132 35.5477 20.1955 35.1586 21.9601 35.3626" stroke="#D15AA2" stroke-width="2.5" stroke-linecap="round" stroke-linejoin="round"/>
<defs>
<linearGradient id="paint0_linear_30_16" x1="106.131" y1="56.5994" x2="21.6306" y2="75.0994" gradientUnits="userSpaceOnUse">
<stop stop-color="white"/>
<stop offset="1" stop-color="#1FCB4F"/>
</linearGradient>
</defs>
</svg>
